# xmcd CD database file
#
# Track frame offsets:
#	150
#	17817
#	34741
#	51219
#	65841
#	82313
#	100236
#	115873
#	128845
#	144658
#	161316
#	176883
#
# Disc length: 2654 seconds
#
# Revision: 1
# Processed by: cddbd v1.5.1PL2 Copyright (c) Steve Scherf et al.
# Submitted via: CDex 1.51
#
DISCID=ab0a5c0c
DTITLE=Dixie Chicks - Wide Open Spaces
DYEAR=1900
DGENRE=Country
TTITLE0=I Can Love You Better
TTITLE1=Wide Open Spaces
TTITLE2=Loving Arms
TTITLE3=There's Your Trouble
TTITLE4=You Were Mine
TTITLE5=Never Say Die
TTITLE6=Tonight The Heartache's On Me
TTITLE7=Let 'Er Rip
TTITLE8=Once You've Loved Sombody
TTITLE9=I'll Take Care Of You
TTITLE10=Am I The Only One
TTITLE11=Give It Up Or Let Me Go
EXTD=
EXTT0=
EXTT1=
EXTT2=
EXTT3=
EXTT4=
EXTT5=
EXTT6=
EXTT7=
EXTT8=
EXTT9=
EXTT10=
EXTT11=
PLAYORDER=
